<svg id="Layer_1" data-name="Layer 1" xmlns="http://www.w3.org/2000/svg" xmlns:xlink="http://www.w3.org/1999/xlink" viewBox="0 0 289.13 335.31"><defs><style>.cls-1{fill:url(#linear-gradient);}</style><linearGradient id="linear-gradient" x1="251.44" y1="306" x2="540.56" y2="306" gradientUnits="userSpaceOnUse"><stop offset="0" stop-color="#c42026"/><stop offset="0.29" stop-color="#d32d2d"/><stop offset="0.94" stop-color="#ef463b"/></linearGradient></defs><path class="cls-1" d="M513.46,240l-81.64-47.16L396.46,172.4l-46.33-26.71c-36.09-20.85-81.27,5.19-81.27,46.92l-4.77,76.72h90.57V248A10.21,10.21,0,0,1,370,239.1l34.72,20,34.72,20.05a10.21,10.21,0,0,1,0,17.69L404.7,316.93,370,337a10.21,10.21,0,0,1-15.32-8.85V306.77H261.77Q256.61,390,251.44,473.23a.17.17,0,0,0,.24.18c3.94-1.54,120.58.24,120.58.24a24.21,24.21,0,0,0,24.2-24.2V401.39L431.82,381l81.64-47.16C549.6,313,549.6,260.82,513.46,240Z" transform="translate(-251.44 -138.35)"/></svg>