<svg id="Layer_1" data-name="Layer 1" xmlns="http://www.w3.org/2000/svg" xmlns:xlink="http://www.w3.org/1999/xlink" viewBox="0 0 792 612"><defs><style>.cls-1{fill:url(#linear-gradient);}.cls-2{fill:#231f20;}</style><linearGradient id="linear-gradient" x1="78.86" y1="291.09" x2="171.18" y2="291.09" gradientUnits="userSpaceOnUse"><stop offset="0" stop-color="#c42026"/><stop offset="0.29" stop-color="#d32d2d"/><stop offset="0.94" stop-color="#ef463b"/></linearGradient></defs><path class="cls-1" d="M162.53,270,136.46,255l-11.29-6.52-14.79-8.53a17.31,17.31,0,0,0-26,15q-.75,12.25-1.52,24.5h28.92v-6.83a3.26,3.26,0,0,1,4.89-2.82l11.09,6.4,11.09,6.4a3.27,3.27,0,0,1,0,5.65l-11.09,6.4L116.71,301a3.26,3.26,0,0,1-4.89-2.83v-6.81H82.16l-3.3,53.15a.06.06,0,0,0,.08.06c1.26-.49,38.5.07,38.5.07a7.73,7.73,0,0,0,7.73-7.72V321.55L136.46,315,162.53,300A17.29,17.29,0,0,0,162.53,270Z"/><path class="cls-2" d="M204.49,285.66a31.5,31.5,0,0,1,12.28-2.24v16.14c-2-.15-3.25-.22-3.92-.22q-7.51,0-11.77,4.2c-2.85,2.8-4.26,7-4.26,12.61v28.47H179.33v-60.3H196v7.95A19.49,19.49,0,0,1,204.49,285.66Z"/><path class="cls-2" d="M285.38,319.4H239.75a14.19,14.19,0,0,0,5.83,8.86A19.26,19.26,0,0,0,257,331.51a23.29,23.29,0,0,0,8.36-1.4,20.45,20.45,0,0,0,6.78-4.43l9.3,10.09q-8.52,9.75-24.88,9.75a39.26,39.26,0,0,1-18-4,29.15,29.15,0,0,1-12.11-11,30.42,30.42,0,0,1-4.26-16,30.82,30.82,0,0,1,4.2-16,29.5,29.5,0,0,1,11.55-11.1,35.75,35.75,0,0,1,32.45-.17,27.83,27.83,0,0,1,11.27,10.93,32.58,32.58,0,0,1,4.09,16.53Q285.71,315,285.38,319.4ZM244.46,300a14.29,14.29,0,0,0-4.93,9.19h29.7a14.46,14.46,0,0,0-4.93-9.13,14.74,14.74,0,0,0-9.86-3.42A15.06,15.06,0,0,0,244.46,300Z"/><path class="cls-2" d="M303,343.67A38.25,38.25,0,0,1,291.54,339l5.83-12.56a36.53,36.53,0,0,0,9.75,4.21,41,41,0,0,0,11.21,1.62q11.1,0,11.1-5.49,0-2.58-3-3.7a45.24,45.24,0,0,0-9.3-1.9,90.36,90.36,0,0,1-12.22-2.58,18.91,18.91,0,0,1-8.35-5.16Q293,309.77,293,302.92a16.51,16.51,0,0,1,3.3-10.14,21.3,21.3,0,0,1,9.64-6.89,41.08,41.08,0,0,1,15-2.47,58.94,58.94,0,0,1,12.72,1.4,35.52,35.52,0,0,1,10.48,3.87l-5.82,12.44a34.81,34.81,0,0,0-17.38-4.48q-5.61,0-8.41,1.57c-1.87,1-2.8,2.39-2.8,4q0,2.81,3,3.93a54,54,0,0,0,9.64,2.12,105.6,105.6,0,0,1,12.1,2.64,18.15,18.15,0,0,1,8.19,5.1q3.46,3.7,3.47,10.31a15.93,15.93,0,0,1-3.36,10,21.5,21.5,0,0,1-9.81,6.78,43.64,43.64,0,0,1-15.3,2.41A58.33,58.33,0,0,1,303,343.67Z"/><path class="cls-2" d="M452.12,290.09q6.67,6.68,6.67,20v34.52H441.3V312.79q0-7.17-3-10.71t-8.46-3.53a12.47,12.47,0,0,0-9.75,4q-3.6,4-3.59,11.83v30.26H399V312.79q0-14.24-11.43-14.24a12.34,12.34,0,0,0-9.64,4q-3.6,4-3.59,11.83v30.26H356.89v-60.3h16.7v6.95a22.1,22.1,0,0,1,8.24-5.83,27.65,27.65,0,0,1,10.71-2,26,26,0,0,1,11.55,2.52,20.47,20.47,0,0,1,8.29,7.34,24.88,24.88,0,0,1,9.36-7.28,29.49,29.49,0,0,1,12.39-2.58Q445.46,283.42,452.12,290.09Z"/><path class="cls-2" d="M520.33,290.09q7.51,6.68,7.51,20.12v34.41H511.48v-7.51q-4.94,8.42-18.39,8.41a28.53,28.53,0,0,1-12-2.35,18,18,0,0,1-7.79-6.5,17,17,0,0,1-2.69-9.42A15.72,15.72,0,0,1,476.89,314q6.35-4.81,19.57-4.82h13.9q0-5.71-3.48-8.8t-10.42-3.08a30.41,30.41,0,0,0-9.48,1.51,25.29,25.29,0,0,0-7.9,4.09l-6.28-12.21a38,38,0,0,1,11.83-5.39,53,53,0,0,1,14.18-1.9Q512.82,283.42,520.33,290.09Zm-14.91,41.59a11.41,11.41,0,0,0,4.94-6.11V319.4h-12q-10.75,0-10.76,7.06a6.3,6.3,0,0,0,2.63,5.33,11.87,11.87,0,0,0,7.23,2A15.24,15.24,0,0,0,505.42,331.68Z"/><path class="cls-2" d="M562.82,285.66h15.47v13.45h-15v45.51H545.78V299.11h-9.31V285.66h9.31V283q0-10.31,6.11-16.37t17.2-6.05a32.18,32.18,0,0,1,7.46.84,18.26,18.26,0,0,1,5.88,2.41l-4.59,12.67a12,12,0,0,0-7.06-2.13q-8,0-8,8.74ZM587,261.45h17.49v83.17H587Z"/><path class="cls-2" d="M621.67,273.11a9.49,9.49,0,0,1,0-13.9,11.06,11.06,0,0,1,7.84-2.81,11.39,11.39,0,0,1,7.85,2.69,8.64,8.64,0,0,1,3,6.73,9.53,9.53,0,0,1-3,7.23,11,11,0,0,1-7.85,2.86A11.1,11.1,0,0,1,621.67,273.11Zm-.9,11.21h17.49v60.3H620.77Z"/><path class="cls-2" d="M692.85,344.62l-13.23-18.49L666,344.62H646.89l23.2-30.37-22.42-29.93h19.62l12.78,17.6,13.12-17.6h18.6L689.37,313.8l23.32,30.82Z"/></svg>